<mxfile host="app.diagrams.net" modified="2023-11-09T19:09:05.873Z" agent="Mozilla/5.0 (Windows NT 10.0; Win64; x64) AppleWebKit/537.36 (KHTML, like Gecko) Chrome/119.0.0.0 Safari/537.36" etag="mUATYFbRXRMDdBm0-Uiw" version="22.1.0" type="onedrive">
  <diagram name="Page-1" id="Qti2Hy974b8m7H6UC3uL">
    <mxGraphModel grid="1" page="1" gridSize="10" guides="1" tooltips="1" connect="1" arrows="1" fold="1" pageScale="1" pageWidth="827" pageHeight="1169" math="0" shadow="0">
      <root>
        <mxCell id="0" />
        <mxCell id="1" parent="0" />
        <mxCell id="PezdVF9twNj0FbqF4pd9-1" value="A" style="ellipse;whiteSpace=wrap;html=1;" vertex="1" parent="1">
          <mxGeometry x="354" y="1080" width="120" height="80" as="geometry" />
        </mxCell>
        <mxCell id="PezdVF9twNj0FbqF4pd9-2" value="A1" style="ellipse;whiteSpace=wrap;html=1;" vertex="1" parent="1">
          <mxGeometry x="392" y="990" width="44" height="40" as="geometry" />
        </mxCell>
        <mxCell id="PezdVF9twNj0FbqF4pd9-3" value="A9" style="ellipse;whiteSpace=wrap;html=1;" vertex="1" parent="1">
          <mxGeometry x="392" y="920" width="44" height="40" as="geometry" />
        </mxCell>
        <mxCell id="PezdVF9twNj0FbqF4pd9-4" value="A10" style="ellipse;whiteSpace=wrap;html=1;" vertex="1" parent="1">
          <mxGeometry x="460" y="920" width="44" height="40" as="geometry" />
        </mxCell>
        <mxCell id="PezdVF9twNj0FbqF4pd9-5" value="A8" style="ellipse;whiteSpace=wrap;html=1;" vertex="1" parent="1">
          <mxGeometry x="320" y="920" width="44" height="40" as="geometry" />
        </mxCell>
        <mxCell id="PezdVF9twNj0FbqF4pd9-6" value="A2" style="ellipse;whiteSpace=wrap;html=1;" vertex="1" parent="1">
          <mxGeometry x="610" y="990" width="44" height="40" as="geometry" />
        </mxCell>
        <mxCell id="PezdVF9twNj0FbqF4pd9-7" value="A3" style="ellipse;whiteSpace=wrap;html=1;" vertex="1" parent="1">
          <mxGeometry x="690" y="990" width="44" height="40" as="geometry" />
        </mxCell>
        <mxCell id="PezdVF9twNj0FbqF4pd9-8" value="A12" style="ellipse;whiteSpace=wrap;html=1;" vertex="1" parent="1">
          <mxGeometry x="690" y="920" width="44" height="40" as="geometry" />
        </mxCell>
        <mxCell id="PezdVF9twNj0FbqF4pd9-9" value="A11" style="ellipse;whiteSpace=wrap;html=1;" vertex="1" parent="1">
          <mxGeometry x="590" y="920" width="44" height="40" as="geometry" />
        </mxCell>
        <mxCell id="PezdVF9twNj0FbqF4pd9-10" value="A4" style="ellipse;whiteSpace=wrap;html=1;" vertex="1" parent="1">
          <mxGeometry x="160" y="990" width="44" height="40" as="geometry" />
        </mxCell>
        <mxCell id="PezdVF9twNj0FbqF4pd9-11" value="A5" style="ellipse;whiteSpace=wrap;html=1;" vertex="1" parent="1">
          <mxGeometry x="90" y="990" width="44" height="40" as="geometry" />
        </mxCell>
        <mxCell id="PezdVF9twNj0FbqF4pd9-12" value="A6" style="ellipse;whiteSpace=wrap;html=1;" vertex="1" parent="1">
          <mxGeometry x="90" y="920" width="44" height="40" as="geometry" />
        </mxCell>
        <mxCell id="PezdVF9twNj0FbqF4pd9-13" value="A7" style="ellipse;whiteSpace=wrap;html=1;" vertex="1" parent="1">
          <mxGeometry x="210" y="920" width="44" height="40" as="geometry" />
        </mxCell>
        <mxCell id="PezdVF9twNj0FbqF4pd9-15" value="" style="endArrow=none;html=1;rounded=0;exitX=0.5;exitY=0;exitDx=0;exitDy=0;entryX=0.5;entryY=1;entryDx=0;entryDy=0;" edge="1" parent="1" source="PezdVF9twNj0FbqF4pd9-1" target="PezdVF9twNj0FbqF4pd9-2">
          <mxGeometry width="50" height="50" relative="1" as="geometry">
            <mxPoint x="290" y="810" as="sourcePoint" />
            <mxPoint x="340" y="760" as="targetPoint" />
          </mxGeometry>
        </mxCell>
        <mxCell id="PezdVF9twNj0FbqF4pd9-16" value="" style="endArrow=none;html=1;rounded=0;exitX=0;exitY=0;exitDx=0;exitDy=0;entryX=0.667;entryY=1.05;entryDx=0;entryDy=0;entryPerimeter=0;" edge="1" parent="1" source="PezdVF9twNj0FbqF4pd9-2" target="PezdVF9twNj0FbqF4pd9-5">
          <mxGeometry width="50" height="50" relative="1" as="geometry">
            <mxPoint x="424" y="1090" as="sourcePoint" />
            <mxPoint x="424" y="1040" as="targetPoint" />
            <Array as="points" />
          </mxGeometry>
        </mxCell>
        <mxCell id="PezdVF9twNj0FbqF4pd9-17" value="" style="endArrow=none;html=1;rounded=0;exitX=0.5;exitY=0;exitDx=0;exitDy=0;entryX=0.5;entryY=1;entryDx=0;entryDy=0;" edge="1" parent="1" source="PezdVF9twNj0FbqF4pd9-2" target="PezdVF9twNj0FbqF4pd9-3">
          <mxGeometry width="50" height="50" relative="1" as="geometry">
            <mxPoint x="434" y="1100" as="sourcePoint" />
            <mxPoint x="434" y="1050" as="targetPoint" />
          </mxGeometry>
        </mxCell>
        <mxCell id="PezdVF9twNj0FbqF4pd9-18" value="" style="endArrow=none;html=1;rounded=0;exitX=1;exitY=0;exitDx=0;exitDy=0;entryX=0;entryY=1;entryDx=0;entryDy=0;" edge="1" parent="1" source="PezdVF9twNj0FbqF4pd9-2" target="PezdVF9twNj0FbqF4pd9-4">
          <mxGeometry width="50" height="50" relative="1" as="geometry">
            <mxPoint x="444" y="1110" as="sourcePoint" />
            <mxPoint x="444" y="1060" as="targetPoint" />
          </mxGeometry>
        </mxCell>
        <mxCell id="PezdVF9twNj0FbqF4pd9-19" value="" style="endArrow=none;html=1;rounded=0;exitX=1;exitY=0.5;exitDx=0;exitDy=0;entryX=0;entryY=0.5;entryDx=0;entryDy=0;" edge="1" parent="1" source="PezdVF9twNj0FbqF4pd9-10" target="PezdVF9twNj0FbqF4pd9-2">
          <mxGeometry width="50" height="50" relative="1" as="geometry">
            <mxPoint x="454" y="1120" as="sourcePoint" />
            <mxPoint x="454" y="1070" as="targetPoint" />
          </mxGeometry>
        </mxCell>
        <mxCell id="PezdVF9twNj0FbqF4pd9-20" value="" style="endArrow=none;html=1;rounded=0;exitX=1;exitY=0.5;exitDx=0;exitDy=0;entryX=0;entryY=0.5;entryDx=0;entryDy=0;" edge="1" parent="1" source="PezdVF9twNj0FbqF4pd9-2" target="PezdVF9twNj0FbqF4pd9-6">
          <mxGeometry width="50" height="50" relative="1" as="geometry">
            <mxPoint x="464" y="1130" as="sourcePoint" />
            <mxPoint x="464" y="1080" as="targetPoint" />
          </mxGeometry>
        </mxCell>
        <mxCell id="PezdVF9twNj0FbqF4pd9-21" value="" style="endArrow=none;html=1;rounded=0;exitX=0;exitY=0.5;exitDx=0;exitDy=0;entryX=1;entryY=0.5;entryDx=0;entryDy=0;" edge="1" parent="1" source="PezdVF9twNj0FbqF4pd9-7" target="PezdVF9twNj0FbqF4pd9-6">
          <mxGeometry width="50" height="50" relative="1" as="geometry">
            <mxPoint x="474" y="1140" as="sourcePoint" />
            <mxPoint x="474" y="1090" as="targetPoint" />
          </mxGeometry>
        </mxCell>
        <mxCell id="PezdVF9twNj0FbqF4pd9-22" value="" style="endArrow=none;html=1;rounded=0;exitX=0;exitY=0.5;exitDx=0;exitDy=0;entryX=1;entryY=0.5;entryDx=0;entryDy=0;" edge="1" parent="1" source="PezdVF9twNj0FbqF4pd9-10" target="PezdVF9twNj0FbqF4pd9-11">
          <mxGeometry width="50" height="50" relative="1" as="geometry">
            <mxPoint x="484" y="1150" as="sourcePoint" />
            <mxPoint x="484" y="1100" as="targetPoint" />
          </mxGeometry>
        </mxCell>
        <mxCell id="PezdVF9twNj0FbqF4pd9-23" value="" style="endArrow=none;html=1;rounded=0;exitX=0;exitY=0.5;exitDx=0;exitDy=0;entryX=1;entryY=0.5;entryDx=0;entryDy=0;" edge="1" parent="1" source="PezdVF9twNj0FbqF4pd9-13" target="PezdVF9twNj0FbqF4pd9-12">
          <mxGeometry width="50" height="50" relative="1" as="geometry">
            <mxPoint x="494" y="1160" as="sourcePoint" />
            <mxPoint x="494" y="1110" as="targetPoint" />
          </mxGeometry>
        </mxCell>
        <mxCell id="PezdVF9twNj0FbqF4pd9-24" value="" style="endArrow=none;html=1;rounded=0;exitX=0;exitY=0.5;exitDx=0;exitDy=0;entryX=1;entryY=0.5;entryDx=0;entryDy=0;" edge="1" parent="1" source="PezdVF9twNj0FbqF4pd9-5" target="PezdVF9twNj0FbqF4pd9-13">
          <mxGeometry width="50" height="50" relative="1" as="geometry">
            <mxPoint x="220" y="950" as="sourcePoint" />
            <mxPoint x="144" y="950" as="targetPoint" />
          </mxGeometry>
        </mxCell>
        <mxCell id="PezdVF9twNj0FbqF4pd9-25" value="" style="endArrow=none;html=1;rounded=0;exitX=0.5;exitY=1;exitDx=0;exitDy=0;entryX=0.5;entryY=0;entryDx=0;entryDy=0;" edge="1" parent="1" source="PezdVF9twNj0FbqF4pd9-12" target="PezdVF9twNj0FbqF4pd9-11">
          <mxGeometry width="50" height="50" relative="1" as="geometry">
            <mxPoint x="230" y="960" as="sourcePoint" />
            <mxPoint x="154" y="960" as="targetPoint" />
          </mxGeometry>
        </mxCell>
        <mxCell id="PezdVF9twNj0FbqF4pd9-26" value="" style="endArrow=none;html=1;rounded=0;entryX=1;entryY=0;entryDx=0;entryDy=0;" edge="1" parent="1" source="PezdVF9twNj0FbqF4pd9-13" target="PezdVF9twNj0FbqF4pd9-10">
          <mxGeometry width="50" height="50" relative="1" as="geometry">
            <mxPoint x="240" y="970" as="sourcePoint" />
            <mxPoint x="164" y="970" as="targetPoint" />
          </mxGeometry>
        </mxCell>
        <mxCell id="PezdVF9twNj0FbqF4pd9-27" value="" style="endArrow=none;html=1;rounded=0;exitX=0;exitY=0.5;exitDx=0;exitDy=0;entryX=1;entryY=0.5;entryDx=0;entryDy=0;" edge="1" parent="1" source="PezdVF9twNj0FbqF4pd9-3" target="PezdVF9twNj0FbqF4pd9-5">
          <mxGeometry width="50" height="50" relative="1" as="geometry">
            <mxPoint x="250" y="980" as="sourcePoint" />
            <mxPoint x="174" y="980" as="targetPoint" />
          </mxGeometry>
        </mxCell>
        <mxCell id="PezdVF9twNj0FbqF4pd9-28" value="" style="endArrow=none;html=1;rounded=0;exitX=0;exitY=0.5;exitDx=0;exitDy=0;entryX=1;entryY=0.5;entryDx=0;entryDy=0;" edge="1" parent="1" source="PezdVF9twNj0FbqF4pd9-4" target="PezdVF9twNj0FbqF4pd9-3">
          <mxGeometry width="50" height="50" relative="1" as="geometry">
            <mxPoint x="260" y="990" as="sourcePoint" />
            <mxPoint x="184" y="990" as="targetPoint" />
          </mxGeometry>
        </mxCell>
        <mxCell id="PezdVF9twNj0FbqF4pd9-29" value="" style="endArrow=none;html=1;rounded=0;exitX=0;exitY=0.5;exitDx=0;exitDy=0;entryX=1;entryY=0.5;entryDx=0;entryDy=0;" edge="1" parent="1" source="PezdVF9twNj0FbqF4pd9-9" target="PezdVF9twNj0FbqF4pd9-4">
          <mxGeometry width="50" height="50" relative="1" as="geometry">
            <mxPoint x="270" y="1000" as="sourcePoint" />
            <mxPoint x="194" y="1000" as="targetPoint" />
          </mxGeometry>
        </mxCell>
        <mxCell id="PezdVF9twNj0FbqF4pd9-30" value="" style="endArrow=none;html=1;rounded=0;exitX=0.303;exitY=0.033;exitDx=0;exitDy=0;entryX=0.5;entryY=1;entryDx=0;entryDy=0;exitPerimeter=0;" edge="1" parent="1" source="PezdVF9twNj0FbqF4pd9-6" target="PezdVF9twNj0FbqF4pd9-9">
          <mxGeometry width="50" height="50" relative="1" as="geometry">
            <mxPoint x="280" y="1010" as="sourcePoint" />
            <mxPoint x="204" y="1010" as="targetPoint" />
          </mxGeometry>
        </mxCell>
        <mxCell id="PezdVF9twNj0FbqF4pd9-31" value="" style="endArrow=none;html=1;rounded=0;exitX=0;exitY=0.5;exitDx=0;exitDy=0;entryX=1;entryY=0.5;entryDx=0;entryDy=0;" edge="1" parent="1" source="PezdVF9twNj0FbqF4pd9-8" target="PezdVF9twNj0FbqF4pd9-9">
          <mxGeometry width="50" height="50" relative="1" as="geometry">
            <mxPoint x="633" y="1001" as="sourcePoint" />
            <mxPoint x="622" y="970" as="targetPoint" />
          </mxGeometry>
        </mxCell>
        <mxCell id="PezdVF9twNj0FbqF4pd9-32" value="" style="endArrow=none;html=1;rounded=0;exitX=0.5;exitY=1;exitDx=0;exitDy=0;entryX=0.5;entryY=0;entryDx=0;entryDy=0;" edge="1" parent="1" source="PezdVF9twNj0FbqF4pd9-8" target="PezdVF9twNj0FbqF4pd9-7">
          <mxGeometry width="50" height="50" relative="1" as="geometry">
            <mxPoint x="643" y="1011" as="sourcePoint" />
            <mxPoint x="632" y="980" as="targetPoint" />
          </mxGeometry>
        </mxCell>
        <mxCell id="PezdVF9twNj0FbqF4pd9-33" value="A13" style="ellipse;whiteSpace=wrap;html=1;" vertex="1" parent="1">
          <mxGeometry x="90" y="850" width="44" height="40" as="geometry" />
        </mxCell>
        <mxCell id="PezdVF9twNj0FbqF4pd9-34" value="A14" style="ellipse;whiteSpace=wrap;html=1;" vertex="1" parent="1">
          <mxGeometry x="210" y="850" width="44" height="40" as="geometry" />
        </mxCell>
        <mxCell id="PezdVF9twNj0FbqF4pd9-35" value="A15" style="ellipse;whiteSpace=wrap;html=1;" vertex="1" parent="1">
          <mxGeometry x="290" y="850" width="44" height="40" as="geometry" />
        </mxCell>
        <mxCell id="PezdVF9twNj0FbqF4pd9-36" value="A16" style="ellipse;whiteSpace=wrap;html=1;" vertex="1" parent="1">
          <mxGeometry x="392" y="850" width="44" height="40" as="geometry" />
        </mxCell>
        <mxCell id="PezdVF9twNj0FbqF4pd9-37" value="A17" style="ellipse;whiteSpace=wrap;html=1;" vertex="1" parent="1">
          <mxGeometry x="510" y="850" width="44" height="40" as="geometry" />
        </mxCell>
        <mxCell id="PezdVF9twNj0FbqF4pd9-38" value="A18" style="ellipse;whiteSpace=wrap;html=1;" vertex="1" parent="1">
          <mxGeometry x="620" y="850" width="44" height="40" as="geometry" />
        </mxCell>
        <mxCell id="PezdVF9twNj0FbqF4pd9-39" value="A19" style="ellipse;whiteSpace=wrap;html=1;" vertex="1" parent="1">
          <mxGeometry x="690" y="850" width="44" height="40" as="geometry" />
        </mxCell>
        <mxCell id="PezdVF9twNj0FbqF4pd9-40" value="" style="endArrow=none;html=1;rounded=0;exitX=0;exitY=0.5;exitDx=0;exitDy=0;entryX=1;entryY=0.5;entryDx=0;entryDy=0;" edge="1" parent="1" source="PezdVF9twNj0FbqF4pd9-34" target="PezdVF9twNj0FbqF4pd9-33">
          <mxGeometry width="50" height="50" relative="1" as="geometry">
            <mxPoint x="220" y="950" as="sourcePoint" />
            <mxPoint x="144" y="950" as="targetPoint" />
          </mxGeometry>
        </mxCell>
        <mxCell id="PezdVF9twNj0FbqF4pd9-41" value="" style="endArrow=none;html=1;rounded=0;exitX=0;exitY=0.5;exitDx=0;exitDy=0;entryX=1;entryY=0.5;entryDx=0;entryDy=0;" edge="1" parent="1" source="PezdVF9twNj0FbqF4pd9-35" target="PezdVF9twNj0FbqF4pd9-34">
          <mxGeometry width="50" height="50" relative="1" as="geometry">
            <mxPoint x="220" y="880" as="sourcePoint" />
            <mxPoint x="144" y="880" as="targetPoint" />
          </mxGeometry>
        </mxCell>
        <mxCell id="PezdVF9twNj0FbqF4pd9-42" value="" style="endArrow=none;html=1;rounded=0;exitX=0;exitY=0.5;exitDx=0;exitDy=0;entryX=1;entryY=0.5;entryDx=0;entryDy=0;" edge="1" parent="1" source="PezdVF9twNj0FbqF4pd9-36" target="PezdVF9twNj0FbqF4pd9-35">
          <mxGeometry width="50" height="50" relative="1" as="geometry">
            <mxPoint x="300" y="880" as="sourcePoint" />
            <mxPoint x="264" y="880" as="targetPoint" />
          </mxGeometry>
        </mxCell>
        <mxCell id="PezdVF9twNj0FbqF4pd9-43" value="" style="endArrow=none;html=1;rounded=0;exitX=0;exitY=0.5;exitDx=0;exitDy=0;entryX=1;entryY=0.5;entryDx=0;entryDy=0;" edge="1" parent="1" source="PezdVF9twNj0FbqF4pd9-37" target="PezdVF9twNj0FbqF4pd9-36">
          <mxGeometry width="50" height="50" relative="1" as="geometry">
            <mxPoint x="402" y="880" as="sourcePoint" />
            <mxPoint x="344" y="880" as="targetPoint" />
          </mxGeometry>
        </mxCell>
        <mxCell id="PezdVF9twNj0FbqF4pd9-44" value="" style="endArrow=none;html=1;rounded=0;exitX=0;exitY=0.5;exitDx=0;exitDy=0;entryX=1;entryY=0.5;entryDx=0;entryDy=0;" edge="1" parent="1" source="PezdVF9twNj0FbqF4pd9-38" target="PezdVF9twNj0FbqF4pd9-37">
          <mxGeometry width="50" height="50" relative="1" as="geometry">
            <mxPoint x="520" y="880" as="sourcePoint" />
            <mxPoint x="446" y="880" as="targetPoint" />
          </mxGeometry>
        </mxCell>
        <mxCell id="PezdVF9twNj0FbqF4pd9-45" value="" style="endArrow=none;html=1;rounded=0;exitX=0;exitY=0.5;exitDx=0;exitDy=0;entryX=1;entryY=0.5;entryDx=0;entryDy=0;" edge="1" parent="1" source="PezdVF9twNj0FbqF4pd9-39" target="PezdVF9twNj0FbqF4pd9-38">
          <mxGeometry width="50" height="50" relative="1" as="geometry">
            <mxPoint x="630" y="880" as="sourcePoint" />
            <mxPoint x="564" y="880" as="targetPoint" />
          </mxGeometry>
        </mxCell>
        <mxCell id="PezdVF9twNj0FbqF4pd9-46" value="" style="endArrow=none;html=1;rounded=0;exitX=0.5;exitY=1;exitDx=0;exitDy=0;entryX=0.5;entryY=0;entryDx=0;entryDy=0;" edge="1" parent="1" source="PezdVF9twNj0FbqF4pd9-39" target="PezdVF9twNj0FbqF4pd9-8">
          <mxGeometry width="50" height="50" relative="1" as="geometry">
            <mxPoint x="640" y="890" as="sourcePoint" />
            <mxPoint x="574" y="890" as="targetPoint" />
          </mxGeometry>
        </mxCell>
        <mxCell id="PezdVF9twNj0FbqF4pd9-47" value="" style="endArrow=none;html=1;rounded=0;exitX=0.5;exitY=1;exitDx=0;exitDy=0;entryX=1;entryY=0;entryDx=0;entryDy=0;" edge="1" parent="1" source="PezdVF9twNj0FbqF4pd9-38" target="PezdVF9twNj0FbqF4pd9-9">
          <mxGeometry width="50" height="50" relative="1" as="geometry">
            <mxPoint x="722" y="900" as="sourcePoint" />
            <mxPoint x="722" y="930" as="targetPoint" />
          </mxGeometry>
        </mxCell>
        <mxCell id="PezdVF9twNj0FbqF4pd9-48" value="" style="endArrow=none;html=1;rounded=0;exitX=1;exitY=1;exitDx=0;exitDy=0;entryX=0.318;entryY=0.1;entryDx=0;entryDy=0;entryPerimeter=0;" edge="1" parent="1" source="PezdVF9twNj0FbqF4pd9-37" target="PezdVF9twNj0FbqF4pd9-9">
          <mxGeometry width="50" height="50" relative="1" as="geometry">
            <mxPoint x="652" y="900" as="sourcePoint" />
            <mxPoint x="638" y="936" as="targetPoint" />
          </mxGeometry>
        </mxCell>
        <mxCell id="PezdVF9twNj0FbqF4pd9-49" value="" style="endArrow=none;html=1;rounded=0;entryX=1;entryY=0;entryDx=0;entryDy=0;" edge="1" parent="1" source="PezdVF9twNj0FbqF4pd9-37" target="PezdVF9twNj0FbqF4pd9-4">
          <mxGeometry width="50" height="50" relative="1" as="geometry">
            <mxPoint x="662" y="910" as="sourcePoint" />
            <mxPoint x="648" y="946" as="targetPoint" />
          </mxGeometry>
        </mxCell>
        <mxCell id="PezdVF9twNj0FbqF4pd9-50" value="" style="endArrow=none;html=1;rounded=0;exitX=0.5;exitY=1;exitDx=0;exitDy=0;entryX=0.5;entryY=0;entryDx=0;entryDy=0;" edge="1" parent="1" source="PezdVF9twNj0FbqF4pd9-36" target="PezdVF9twNj0FbqF4pd9-3">
          <mxGeometry width="50" height="50" relative="1" as="geometry">
            <mxPoint x="672" y="920" as="sourcePoint" />
            <mxPoint x="658" y="956" as="targetPoint" />
          </mxGeometry>
        </mxCell>
        <mxCell id="PezdVF9twNj0FbqF4pd9-51" value="" style="endArrow=none;html=1;rounded=0;exitX=0.5;exitY=1;exitDx=0;exitDy=0;entryX=0.5;entryY=0;entryDx=0;entryDy=0;" edge="1" parent="1" source="PezdVF9twNj0FbqF4pd9-35" target="PezdVF9twNj0FbqF4pd9-5">
          <mxGeometry width="50" height="50" relative="1" as="geometry">
            <mxPoint x="424" y="900" as="sourcePoint" />
            <mxPoint x="424" y="930" as="targetPoint" />
          </mxGeometry>
        </mxCell>
        <mxCell id="PezdVF9twNj0FbqF4pd9-52" value="" style="endArrow=none;html=1;rounded=0;exitX=0.5;exitY=1;exitDx=0;exitDy=0;" edge="1" parent="1" source="PezdVF9twNj0FbqF4pd9-34" target="PezdVF9twNj0FbqF4pd9-13">
          <mxGeometry width="50" height="50" relative="1" as="geometry">
            <mxPoint x="434" y="910" as="sourcePoint" />
            <mxPoint x="434" y="940" as="targetPoint" />
          </mxGeometry>
        </mxCell>
        <mxCell id="PezdVF9twNj0FbqF4pd9-53" value="" style="endArrow=none;html=1;rounded=0;exitX=0.5;exitY=0;exitDx=0;exitDy=0;entryX=0.5;entryY=1;entryDx=0;entryDy=0;" edge="1" parent="1" source="PezdVF9twNj0FbqF4pd9-12" target="PezdVF9twNj0FbqF4pd9-33">
          <mxGeometry width="50" height="50" relative="1" as="geometry">
            <mxPoint x="444" y="920" as="sourcePoint" />
            <mxPoint x="444" y="950" as="targetPoint" />
          </mxGeometry>
        </mxCell>
        <mxCell id="PezdVF9twNj0FbqF4pd9-55" value="A22" style="ellipse;whiteSpace=wrap;html=1;" vertex="1" parent="1">
          <mxGeometry x="90" y="700" width="44" height="40" as="geometry" />
        </mxCell>
        <mxCell id="PezdVF9twNj0FbqF4pd9-56" value="A21" style="ellipse;whiteSpace=wrap;html=1;" vertex="1" parent="1">
          <mxGeometry x="134" y="760" width="44" height="40" as="geometry" />
        </mxCell>
        <mxCell id="PezdVF9twNj0FbqF4pd9-57" value="A23" style="ellipse;whiteSpace=wrap;html=1;" vertex="1" parent="1">
          <mxGeometry x="166" y="700" width="44" height="40" as="geometry" />
        </mxCell>
        <mxCell id="PezdVF9twNj0FbqF4pd9-58" value="A24" style="ellipse;whiteSpace=wrap;html=1;" vertex="1" parent="1">
          <mxGeometry x="260" y="700" width="44" height="40" as="geometry" />
        </mxCell>
        <mxCell id="PezdVF9twNj0FbqF4pd9-59" value="A25" style="ellipse;whiteSpace=wrap;html=1;" vertex="1" parent="1">
          <mxGeometry x="392" y="700" width="44" height="40" as="geometry" />
        </mxCell>
        <mxCell id="PezdVF9twNj0FbqF4pd9-60" value="A26" style="ellipse;whiteSpace=wrap;html=1;" vertex="1" parent="1">
          <mxGeometry x="474" y="700" width="44" height="40" as="geometry" />
        </mxCell>
        <mxCell id="PezdVF9twNj0FbqF4pd9-61" value="A27" style="ellipse;whiteSpace=wrap;html=1;" vertex="1" parent="1">
          <mxGeometry x="580" y="700" width="44" height="40" as="geometry" />
        </mxCell>
        <mxCell id="PezdVF9twNj0FbqF4pd9-62" value="A20" style="ellipse;whiteSpace=wrap;html=1;" vertex="1" parent="1">
          <mxGeometry x="654" y="800" width="44" height="40" as="geometry" />
        </mxCell>
        <mxCell id="PezdVF9twNj0FbqF4pd9-63" value="A28" style="ellipse;whiteSpace=wrap;html=1;" vertex="1" parent="1">
          <mxGeometry x="690" y="700" width="44" height="40" as="geometry" />
        </mxCell>
        <mxCell id="PezdVF9twNj0FbqF4pd9-64" value="" style="endArrow=none;html=1;rounded=0;exitX=1;exitY=1;exitDx=0;exitDy=0;entryX=0.303;entryY=0.033;entryDx=0;entryDy=0;entryPerimeter=0;" edge="1" parent="1" source="PezdVF9twNj0FbqF4pd9-62" target="PezdVF9twNj0FbqF4pd9-39">
          <mxGeometry width="50" height="50" relative="1" as="geometry">
            <mxPoint x="630" y="880" as="sourcePoint" />
            <mxPoint x="564" y="880" as="targetPoint" />
          </mxGeometry>
        </mxCell>
        <mxCell id="PezdVF9twNj0FbqF4pd9-65" value="" style="endArrow=none;html=1;rounded=0;exitX=0.303;exitY=0.917;exitDx=0;exitDy=0;entryX=1;entryY=0;entryDx=0;entryDy=0;exitPerimeter=0;" edge="1" parent="1" source="PezdVF9twNj0FbqF4pd9-62" target="PezdVF9twNj0FbqF4pd9-38">
          <mxGeometry width="50" height="50" relative="1" as="geometry">
            <mxPoint x="640" y="890" as="sourcePoint" />
            <mxPoint x="574" y="890" as="targetPoint" />
          </mxGeometry>
        </mxCell>
        <mxCell id="PezdVF9twNj0FbqF4pd9-66" value="" style="endArrow=none;html=1;rounded=0;exitX=0.5;exitY=1;exitDx=0;exitDy=0;entryX=0.697;entryY=0.083;entryDx=0;entryDy=0;entryPerimeter=0;" edge="1" parent="1" source="PezdVF9twNj0FbqF4pd9-63" target="PezdVF9twNj0FbqF4pd9-62">
          <mxGeometry width="50" height="50" relative="1" as="geometry">
            <mxPoint x="650" y="900" as="sourcePoint" />
            <mxPoint x="584" y="900" as="targetPoint" />
          </mxGeometry>
        </mxCell>
        <mxCell id="PezdVF9twNj0FbqF4pd9-67" value="" style="endArrow=none;html=1;rounded=0;exitX=0;exitY=0;exitDx=0;exitDy=0;entryX=0.712;entryY=1.033;entryDx=0;entryDy=0;entryPerimeter=0;" edge="1" parent="1" source="PezdVF9twNj0FbqF4pd9-62" target="PezdVF9twNj0FbqF4pd9-61">
          <mxGeometry width="50" height="50" relative="1" as="geometry">
            <mxPoint x="660" y="910" as="sourcePoint" />
            <mxPoint x="594" y="910" as="targetPoint" />
          </mxGeometry>
        </mxCell>
        <mxCell id="PezdVF9twNj0FbqF4pd9-68" value="" style="endArrow=none;html=1;rounded=0;exitX=0;exitY=0.5;exitDx=0;exitDy=0;entryX=1;entryY=0.5;entryDx=0;entryDy=0;" edge="1" parent="1" source="PezdVF9twNj0FbqF4pd9-63" target="PezdVF9twNj0FbqF4pd9-61">
          <mxGeometry width="50" height="50" relative="1" as="geometry">
            <mxPoint x="670" y="920" as="sourcePoint" />
            <mxPoint x="604" y="920" as="targetPoint" />
          </mxGeometry>
        </mxCell>
        <mxCell id="PezdVF9twNj0FbqF4pd9-69" value="" style="endArrow=none;html=1;rounded=0;entryX=1;entryY=0.5;entryDx=0;entryDy=0;" edge="1" parent="1" target="PezdVF9twNj0FbqF4pd9-60">
          <mxGeometry width="50" height="50" relative="1" as="geometry">
            <mxPoint x="580" y="720" as="sourcePoint" />
            <mxPoint x="634" y="730" as="targetPoint" />
          </mxGeometry>
        </mxCell>
        <mxCell id="PezdVF9twNj0FbqF4pd9-70" value="" style="endArrow=none;html=1;rounded=0;exitX=0;exitY=0.5;exitDx=0;exitDy=0;entryX=1;entryY=0.5;entryDx=0;entryDy=0;" edge="1" parent="1" source="PezdVF9twNj0FbqF4pd9-60" target="PezdVF9twNj0FbqF4pd9-59">
          <mxGeometry width="50" height="50" relative="1" as="geometry">
            <mxPoint x="710" y="740" as="sourcePoint" />
            <mxPoint x="644" y="740" as="targetPoint" />
          </mxGeometry>
        </mxCell>
        <mxCell id="PezdVF9twNj0FbqF4pd9-71" value="" style="endArrow=none;html=1;rounded=0;exitX=0;exitY=0.5;exitDx=0;exitDy=0;entryX=1;entryY=0.5;entryDx=0;entryDy=0;" edge="1" parent="1" source="PezdVF9twNj0FbqF4pd9-59" target="PezdVF9twNj0FbqF4pd9-58">
          <mxGeometry width="50" height="50" relative="1" as="geometry">
            <mxPoint x="484" y="730" as="sourcePoint" />
            <mxPoint x="446" y="730" as="targetPoint" />
          </mxGeometry>
        </mxCell>
        <mxCell id="PezdVF9twNj0FbqF4pd9-72" value="" style="endArrow=none;html=1;rounded=0;entryX=1;entryY=0.5;entryDx=0;entryDy=0;" edge="1" parent="1" source="PezdVF9twNj0FbqF4pd9-58" target="PezdVF9twNj0FbqF4pd9-57">
          <mxGeometry width="50" height="50" relative="1" as="geometry">
            <mxPoint x="402" y="730" as="sourcePoint" />
            <mxPoint x="314" y="730" as="targetPoint" />
          </mxGeometry>
        </mxCell>
        <mxCell id="PezdVF9twNj0FbqF4pd9-73" value="" style="endArrow=none;html=1;rounded=0;entryX=1;entryY=0.5;entryDx=0;entryDy=0;" edge="1" parent="1" source="PezdVF9twNj0FbqF4pd9-57" target="PezdVF9twNj0FbqF4pd9-55">
          <mxGeometry width="50" height="50" relative="1" as="geometry">
            <mxPoint x="270" y="730" as="sourcePoint" />
            <mxPoint x="220" y="730" as="targetPoint" />
          </mxGeometry>
        </mxCell>
        <mxCell id="PezdVF9twNj0FbqF4pd9-74" value="" style="endArrow=none;html=1;rounded=0;entryX=0;entryY=0;entryDx=0;entryDy=0;exitX=0.788;exitY=1.05;exitDx=0;exitDy=0;exitPerimeter=0;" edge="1" parent="1" source="PezdVF9twNj0FbqF4pd9-55" target="PezdVF9twNj0FbqF4pd9-56">
          <mxGeometry width="50" height="50" relative="1" as="geometry">
            <mxPoint x="176" y="730" as="sourcePoint" />
            <mxPoint x="144" y="730" as="targetPoint" />
          </mxGeometry>
        </mxCell>
        <mxCell id="PezdVF9twNj0FbqF4pd9-75" value="" style="endArrow=none;html=1;rounded=0;entryX=0.682;entryY=-0.017;entryDx=0;entryDy=0;exitX=0.333;exitY=0.933;exitDx=0;exitDy=0;exitPerimeter=0;entryPerimeter=0;" edge="1" parent="1" source="PezdVF9twNj0FbqF4pd9-57" target="PezdVF9twNj0FbqF4pd9-56">
          <mxGeometry width="50" height="50" relative="1" as="geometry">
            <mxPoint x="135" y="752" as="sourcePoint" />
            <mxPoint x="150" y="776" as="targetPoint" />
          </mxGeometry>
        </mxCell>
        <mxCell id="PezdVF9twNj0FbqF4pd9-76" value="" style="endArrow=none;html=1;rounded=0;entryX=0.5;entryY=0;entryDx=0;entryDy=0;exitX=0.242;exitY=1.05;exitDx=0;exitDy=0;exitPerimeter=0;" edge="1" parent="1" source="PezdVF9twNj0FbqF4pd9-56" target="PezdVF9twNj0FbqF4pd9-33">
          <mxGeometry width="50" height="50" relative="1" as="geometry">
            <mxPoint x="145" y="762" as="sourcePoint" />
            <mxPoint x="160" y="786" as="targetPoint" />
          </mxGeometry>
        </mxCell>
        <mxCell id="PezdVF9twNj0FbqF4pd9-77" value="" style="endArrow=none;html=1;rounded=0;entryX=1;entryY=1;entryDx=0;entryDy=0;" edge="1" parent="1" source="PezdVF9twNj0FbqF4pd9-34" target="PezdVF9twNj0FbqF4pd9-56">
          <mxGeometry width="50" height="50" relative="1" as="geometry">
            <mxPoint x="155" y="812" as="sourcePoint" />
            <mxPoint x="122" y="860" as="targetPoint" />
          </mxGeometry>
        </mxCell>
        <mxCell id="PezdVF9twNj0FbqF4pd9-78" value="" style="endArrow=none;html=1;rounded=0;entryX=0.5;entryY=0;entryDx=0;entryDy=0;exitX=0.318;exitY=1.05;exitDx=0;exitDy=0;exitPerimeter=0;" edge="1" parent="1" source="PezdVF9twNj0FbqF4pd9-58" target="PezdVF9twNj0FbqF4pd9-34">
          <mxGeometry width="50" height="50" relative="1" as="geometry">
            <mxPoint x="229" y="864" as="sourcePoint" />
            <mxPoint x="182" y="804" as="targetPoint" />
          </mxGeometry>
        </mxCell>
        <mxCell id="PezdVF9twNj0FbqF4pd9-79" value="" style="endArrow=none;html=1;rounded=0;entryX=0.5;entryY=0;entryDx=0;entryDy=0;exitX=0.667;exitY=1.033;exitDx=0;exitDy=0;exitPerimeter=0;" edge="1" parent="1" source="PezdVF9twNj0FbqF4pd9-58" target="PezdVF9twNj0FbqF4pd9-35">
          <mxGeometry width="50" height="50" relative="1" as="geometry">
            <mxPoint x="284" y="752" as="sourcePoint" />
            <mxPoint x="242" y="860" as="targetPoint" />
          </mxGeometry>
        </mxCell>
        <mxCell id="PezdVF9twNj0FbqF4pd9-80" value="" style="endArrow=none;html=1;rounded=0;entryX=0.5;entryY=0;entryDx=0;entryDy=0;exitX=0.5;exitY=1;exitDx=0;exitDy=0;" edge="1" parent="1" source="PezdVF9twNj0FbqF4pd9-59" target="PezdVF9twNj0FbqF4pd9-36">
          <mxGeometry width="50" height="50" relative="1" as="geometry">
            <mxPoint x="294" y="762" as="sourcePoint" />
            <mxPoint x="252" y="870" as="targetPoint" />
          </mxGeometry>
        </mxCell>
        <mxCell id="PezdVF9twNj0FbqF4pd9-81" value="" style="endArrow=none;html=1;rounded=0;entryX=0.333;entryY=0.033;entryDx=0;entryDy=0;exitX=0.5;exitY=1;exitDx=0;exitDy=0;entryPerimeter=0;" edge="1" parent="1" source="PezdVF9twNj0FbqF4pd9-60" target="PezdVF9twNj0FbqF4pd9-37">
          <mxGeometry width="50" height="50" relative="1" as="geometry">
            <mxPoint x="304" y="772" as="sourcePoint" />
            <mxPoint x="262" y="880" as="targetPoint" />
          </mxGeometry>
        </mxCell>
        <mxCell id="PezdVF9twNj0FbqF4pd9-82" value="A29" style="ellipse;whiteSpace=wrap;html=1;" vertex="1" parent="1">
          <mxGeometry x="536" y="620" width="44" height="40" as="geometry" />
        </mxCell>
        <mxCell id="PezdVF9twNj0FbqF4pd9-83" value="A30" style="ellipse;whiteSpace=wrap;html=1;" vertex="1" parent="1">
          <mxGeometry x="392" y="570" width="44" height="40" as="geometry" />
        </mxCell>
        <mxCell id="PezdVF9twNj0FbqF4pd9-84" value="A31" style="ellipse;whiteSpace=wrap;html=1;" vertex="1" parent="1">
          <mxGeometry x="216" y="565" width="44" height="40" as="geometry" />
        </mxCell>
        <mxCell id="PezdVF9twNj0FbqF4pd9-85" value="" style="endArrow=none;html=1;rounded=0;exitX=0;exitY=1;exitDx=0;exitDy=0;entryX=0.5;entryY=0;entryDx=0;entryDy=0;" edge="1" parent="1" source="PezdVF9twNj0FbqF4pd9-84" target="PezdVF9twNj0FbqF4pd9-57">
          <mxGeometry width="50" height="50" relative="1" as="geometry">
            <mxPoint x="402" y="730" as="sourcePoint" />
            <mxPoint x="314" y="730" as="targetPoint" />
          </mxGeometry>
        </mxCell>
        <mxCell id="PezdVF9twNj0FbqF4pd9-86" value="" style="endArrow=none;html=1;rounded=0;exitX=0.697;exitY=0.925;exitDx=0;exitDy=0;entryX=0.5;entryY=0;entryDx=0;entryDy=0;exitPerimeter=0;" edge="1" parent="1" source="PezdVF9twNj0FbqF4pd9-84" target="PezdVF9twNj0FbqF4pd9-58">
          <mxGeometry width="50" height="50" relative="1" as="geometry">
            <mxPoint x="412" y="740" as="sourcePoint" />
            <mxPoint x="324" y="740" as="targetPoint" />
          </mxGeometry>
        </mxCell>
        <mxCell id="PezdVF9twNj0FbqF4pd9-87" value="" style="endArrow=none;html=1;rounded=0;exitX=0.5;exitY=0;exitDx=0;exitDy=0;entryX=0.5;entryY=1;entryDx=0;entryDy=0;" edge="1" parent="1" source="PezdVF9twNj0FbqF4pd9-59" target="PezdVF9twNj0FbqF4pd9-83">
          <mxGeometry width="50" height="50" relative="1" as="geometry">
            <mxPoint x="422" y="750" as="sourcePoint" />
            <mxPoint x="334" y="750" as="targetPoint" />
          </mxGeometry>
        </mxCell>
        <mxCell id="PezdVF9twNj0FbqF4pd9-88" value="" style="endArrow=none;html=1;rounded=0;exitX=0.5;exitY=0;exitDx=0;exitDy=0;entryX=1;entryY=1;entryDx=0;entryDy=0;" edge="1" parent="1" source="PezdVF9twNj0FbqF4pd9-60" target="PezdVF9twNj0FbqF4pd9-83">
          <mxGeometry width="50" height="50" relative="1" as="geometry">
            <mxPoint x="424" y="710" as="sourcePoint" />
            <mxPoint x="424" y="620" as="targetPoint" />
          </mxGeometry>
        </mxCell>
        <mxCell id="PezdVF9twNj0FbqF4pd9-89" value="" style="endArrow=none;html=1;rounded=0;exitX=0.5;exitY=0;exitDx=0;exitDy=0;entryX=1;entryY=1;entryDx=0;entryDy=0;" edge="1" parent="1" source="PezdVF9twNj0FbqF4pd9-61" target="PezdVF9twNj0FbqF4pd9-82">
          <mxGeometry width="50" height="50" relative="1" as="geometry">
            <mxPoint x="434" y="720" as="sourcePoint" />
            <mxPoint x="434" y="630" as="targetPoint" />
          </mxGeometry>
        </mxCell>
        <mxCell id="PezdVF9twNj0FbqF4pd9-90" value="" style="endArrow=none;html=1;rounded=0;exitX=0;exitY=0;exitDx=0;exitDy=0;entryX=1;entryY=0.5;entryDx=0;entryDy=0;" edge="1" parent="1" source="PezdVF9twNj0FbqF4pd9-63" target="PezdVF9twNj0FbqF4pd9-82">
          <mxGeometry width="50" height="50" relative="1" as="geometry">
            <mxPoint x="444" y="730" as="sourcePoint" />
            <mxPoint x="444" y="640" as="targetPoint" />
          </mxGeometry>
        </mxCell>
        <mxCell id="PezdVF9twNj0FbqF4pd9-91" value="" style="endArrow=none;html=1;rounded=0;exitX=1;exitY=0.5;exitDx=0;exitDy=0;entryX=0;entryY=0;entryDx=0;entryDy=0;" edge="1" parent="1" source="PezdVF9twNj0FbqF4pd9-83" target="PezdVF9twNj0FbqF4pd9-82">
          <mxGeometry width="50" height="50" relative="1" as="geometry">
            <mxPoint x="454" y="740" as="sourcePoint" />
            <mxPoint x="454" y="650" as="targetPoint" />
          </mxGeometry>
        </mxCell>
        <mxCell id="PezdVF9twNj0FbqF4pd9-92" value="" style="endArrow=none;html=1;rounded=0;exitX=1;exitY=0.5;exitDx=0;exitDy=0;entryX=0;entryY=0.5;entryDx=0;entryDy=0;" edge="1" parent="1" source="PezdVF9twNj0FbqF4pd9-84" target="PezdVF9twNj0FbqF4pd9-83">
          <mxGeometry width="50" height="50" relative="1" as="geometry">
            <mxPoint x="260" y="585" as="sourcePoint" />
            <mxPoint x="380" y="590" as="targetPoint" />
          </mxGeometry>
        </mxCell>
        <mxCell id="PezdVF9twNj0FbqF4pd9-94" value="B" style="ellipse;whiteSpace=wrap;html=1;" vertex="1" parent="1">
          <mxGeometry x="354" y="420" width="120" height="80" as="geometry" />
        </mxCell>
        <mxCell id="PezdVF9twNj0FbqF4pd9-95" value="" style="endArrow=none;html=1;rounded=0;exitX=0.5;exitY=1;exitDx=0;exitDy=0;entryX=0.5;entryY=0;entryDx=0;entryDy=0;" edge="1" parent="1" source="PezdVF9twNj0FbqF4pd9-94" target="PezdVF9twNj0FbqF4pd9-83">
          <mxGeometry width="50" height="50" relative="1" as="geometry">
            <mxPoint x="270" y="595" as="sourcePoint" />
            <mxPoint x="402" y="600" as="targetPoint" />
          </mxGeometry>
        </mxCell>
        <mxCell id="rTlrXJe3bDcf8CnAIpwq-1" value="24" style="text;html=1;align=center;verticalAlign=middle;resizable=0;points=[];autosize=1;strokeColor=none;fillColor=none;" vertex="1" parent="1">
          <mxGeometry x="400" y="960" width="40" height="30" as="geometry" />
        </mxCell>
        <mxCell id="rTlrXJe3bDcf8CnAIpwq-4" value="22" style="text;html=1;align=center;verticalAlign=middle;resizable=0;points=[];autosize=1;strokeColor=none;fillColor=none;" vertex="1" parent="1">
          <mxGeometry x="440" y="960" width="40" height="30" as="geometry" />
        </mxCell>
        <mxCell id="rTlrXJe3bDcf8CnAIpwq-5" value="20" style="text;html=1;align=center;verticalAlign=middle;resizable=0;points=[];autosize=1;strokeColor=none;fillColor=none;" vertex="1" parent="1">
          <mxGeometry x="340" y="968" width="40" height="30" as="geometry" />
        </mxCell>
        <mxCell id="rTlrXJe3bDcf8CnAIpwq-6" value="20" style="text;html=1;align=center;verticalAlign=middle;resizable=0;points=[];autosize=1;strokeColor=none;fillColor=none;" vertex="1" parent="1">
          <mxGeometry x="430" y="930" width="40" height="30" as="geometry" />
        </mxCell>
        <mxCell id="rTlrXJe3bDcf8CnAIpwq-7" value="20" style="text;html=1;align=center;verticalAlign=middle;resizable=0;points=[];autosize=1;strokeColor=none;fillColor=none;" vertex="1" parent="1">
          <mxGeometry x="354" y="930" width="40" height="30" as="geometry" />
        </mxCell>
        <mxCell id="rTlrXJe3bDcf8CnAIpwq-8" value="9" style="text;html=1;align=center;verticalAlign=middle;resizable=0;points=[];autosize=1;strokeColor=none;fillColor=none;" vertex="1" parent="1">
          <mxGeometry x="504" y="1008" width="30" height="30" as="geometry" />
        </mxCell>
        <mxCell id="rTlrXJe3bDcf8CnAIpwq-9" value="13" style="text;html=1;align=center;verticalAlign=middle;resizable=0;points=[];autosize=1;strokeColor=none;fillColor=none;" vertex="1" parent="1">
          <mxGeometry x="280" y="1008" width="40" height="30" as="geometry" />
        </mxCell>
        <mxCell id="rTlrXJe3bDcf8CnAIpwq-10" value="5" style="text;html=1;align=center;verticalAlign=middle;resizable=0;points=[];autosize=1;strokeColor=none;fillColor=none;" vertex="1" parent="1">
          <mxGeometry x="134" y="1008" width="30" height="30" as="geometry" />
        </mxCell>
        <mxCell id="rTlrXJe3bDcf8CnAIpwq-11" value="5" style="text;html=1;align=center;verticalAlign=middle;resizable=0;points=[];autosize=1;strokeColor=none;fillColor=none;" vertex="1" parent="1">
          <mxGeometry x="654" y="1008" width="30" height="30" as="geometry" />
        </mxCell>
        <mxCell id="rTlrXJe3bDcf8CnAIpwq-12" value="5" style="text;html=1;align=center;verticalAlign=middle;resizable=0;points=[];autosize=1;strokeColor=none;fillColor=none;" vertex="1" parent="1">
          <mxGeometry x="85" y="958" width="30" height="30" as="geometry" />
        </mxCell>
        <mxCell id="rTlrXJe3bDcf8CnAIpwq-13" value="5" style="text;html=1;align=center;verticalAlign=middle;resizable=0;points=[];autosize=1;strokeColor=none;fillColor=none;" vertex="1" parent="1">
          <mxGeometry x="204" y="960" width="30" height="30" as="geometry" />
        </mxCell>
        <mxCell id="rTlrXJe3bDcf8CnAIpwq-14" value="9" style="text;html=1;align=center;verticalAlign=middle;resizable=0;points=[];autosize=1;strokeColor=none;fillColor=none;" vertex="1" parent="1">
          <mxGeometry x="605" y="958" width="30" height="30" as="geometry" />
        </mxCell>
        <mxCell id="rTlrXJe3bDcf8CnAIpwq-15" value="5" style="text;html=1;align=center;verticalAlign=middle;resizable=0;points=[];autosize=1;strokeColor=none;fillColor=none;" vertex="1" parent="1">
          <mxGeometry x="705" y="958" width="30" height="30" as="geometry" />
        </mxCell>
        <mxCell id="rTlrXJe3bDcf8CnAIpwq-16" value="7" style="text;html=1;align=center;verticalAlign=middle;resizable=0;points=[];autosize=1;strokeColor=none;fillColor=none;" vertex="1" parent="1">
          <mxGeometry x="705" y="888" width="30" height="30" as="geometry" />
        </mxCell>
        <mxCell id="rTlrXJe3bDcf8CnAIpwq-17" value="5" style="text;html=1;align=center;verticalAlign=middle;resizable=0;points=[];autosize=1;strokeColor=none;fillColor=none;" vertex="1" parent="1">
          <mxGeometry x="645" y="918" width="30" height="30" as="geometry" />
        </mxCell>
        <mxCell id="rTlrXJe3bDcf8CnAIpwq-18" value="10" style="text;html=1;align=center;verticalAlign=middle;resizable=0;points=[];autosize=1;strokeColor=none;fillColor=none;" vertex="1" parent="1">
          <mxGeometry x="624" y="890" width="40" height="30" as="geometry" />
        </mxCell>
        <mxCell id="rTlrXJe3bDcf8CnAIpwq-19" value="7" style="text;html=1;align=center;verticalAlign=middle;resizable=0;points=[];autosize=1;strokeColor=none;fillColor=none;" vertex="1" parent="1">
          <mxGeometry x="525" y="938" width="30" height="30" as="geometry" />
        </mxCell>
        <mxCell id="rTlrXJe3bDcf8CnAIpwq-20" value="7" style="text;html=1;align=center;verticalAlign=middle;resizable=0;points=[];autosize=1;strokeColor=none;fillColor=none;" vertex="1" parent="1">
          <mxGeometry x="165" y="938" width="30" height="30" as="geometry" />
        </mxCell>
        <mxCell id="rTlrXJe3bDcf8CnAIpwq-21" value="11" style="text;html=1;align=center;verticalAlign=middle;resizable=0;points=[];autosize=1;strokeColor=none;fillColor=none;" vertex="1" parent="1">
          <mxGeometry x="270" y="938" width="40" height="30" as="geometry" />
        </mxCell>
        <mxCell id="rTlrXJe3bDcf8CnAIpwq-22" value="12" style="text;html=1;align=center;verticalAlign=middle;resizable=0;points=[];autosize=1;strokeColor=none;fillColor=none;" vertex="1" parent="1">
          <mxGeometry x="540" y="890" width="40" height="30" as="geometry" />
        </mxCell>
        <mxCell id="rTlrXJe3bDcf8CnAIpwq-23" value="24" style="text;html=1;align=center;verticalAlign=middle;resizable=0;points=[];autosize=1;strokeColor=none;fillColor=none;" vertex="1" parent="1">
          <mxGeometry x="500" y="888" width="40" height="30" as="geometry" />
        </mxCell>
        <mxCell id="rTlrXJe3bDcf8CnAIpwq-24" value="28" style="text;html=1;align=center;verticalAlign=middle;resizable=0;points=[];autosize=1;strokeColor=none;fillColor=none;" vertex="1" parent="1">
          <mxGeometry x="380" y="888" width="40" height="30" as="geometry" />
        </mxCell>
        <mxCell id="rTlrXJe3bDcf8CnAIpwq-25" value="22" style="text;html=1;align=center;verticalAlign=middle;resizable=0;points=[];autosize=1;strokeColor=none;fillColor=none;" vertex="1" parent="1">
          <mxGeometry x="294" y="890" width="40" height="30" as="geometry" />
        </mxCell>
        <mxCell id="rTlrXJe3bDcf8CnAIpwq-26" value="12" style="text;html=1;align=center;verticalAlign=middle;resizable=0;points=[];autosize=1;strokeColor=none;fillColor=none;" vertex="1" parent="1">
          <mxGeometry x="220" y="888" width="40" height="30" as="geometry" />
        </mxCell>
        <mxCell id="rTlrXJe3bDcf8CnAIpwq-28" value="5" style="text;html=1;align=center;verticalAlign=middle;resizable=0;points=[];autosize=1;strokeColor=none;fillColor=none;" vertex="1" parent="1">
          <mxGeometry x="105" y="888" width="30" height="30" as="geometry" />
        </mxCell>
        <mxCell id="rTlrXJe3bDcf8CnAIpwq-29" value="7" style="text;html=1;align=center;verticalAlign=middle;resizable=0;points=[];autosize=1;strokeColor=none;fillColor=none;" vertex="1" parent="1">
          <mxGeometry x="155" y="868" width="30" height="30" as="geometry" />
        </mxCell>
        <mxCell id="rTlrXJe3bDcf8CnAIpwq-30" value="14" style="text;html=1;align=center;verticalAlign=middle;resizable=0;points=[];autosize=1;strokeColor=none;fillColor=none;" vertex="1" parent="1">
          <mxGeometry x="250" y="868" width="40" height="30" as="geometry" />
        </mxCell>
        <mxCell id="rTlrXJe3bDcf8CnAIpwq-31" value="20" style="text;html=1;align=center;verticalAlign=middle;resizable=0;points=[];autosize=1;strokeColor=none;fillColor=none;" vertex="1" parent="1">
          <mxGeometry x="340" y="868" width="40" height="30" as="geometry" />
        </mxCell>
        <mxCell id="rTlrXJe3bDcf8CnAIpwq-32" value="20" style="text;html=1;align=center;verticalAlign=middle;resizable=0;points=[];autosize=1;strokeColor=none;fillColor=none;" vertex="1" parent="1">
          <mxGeometry x="450" y="868" width="40" height="30" as="geometry" />
        </mxCell>
        <mxCell id="rTlrXJe3bDcf8CnAIpwq-33" value="10" style="text;html=1;align=center;verticalAlign=middle;resizable=0;points=[];autosize=1;strokeColor=none;fillColor=none;" vertex="1" parent="1">
          <mxGeometry x="570" y="868" width="40" height="30" as="geometry" />
        </mxCell>
        <mxCell id="rTlrXJe3bDcf8CnAIpwq-34" value="5" style="text;html=1;align=center;verticalAlign=middle;resizable=0;points=[];autosize=1;strokeColor=none;fillColor=none;" vertex="1" parent="1">
          <mxGeometry x="665" y="868" width="30" height="30" as="geometry" />
        </mxCell>
        <mxCell id="rTlrXJe3bDcf8CnAIpwq-36" value="5" style="text;html=1;align=center;verticalAlign=middle;resizable=0;points=[];autosize=1;strokeColor=none;fillColor=none;" vertex="1" parent="1">
          <mxGeometry x="125" y="808" width="30" height="30" as="geometry" />
        </mxCell>
        <mxCell id="rTlrXJe3bDcf8CnAIpwq-37" value="10" style="text;html=1;align=center;verticalAlign=middle;resizable=0;points=[];autosize=1;strokeColor=none;fillColor=none;" vertex="1" parent="1">
          <mxGeometry x="180" y="798" width="40" height="30" as="geometry" />
        </mxCell>
        <mxCell id="rTlrXJe3bDcf8CnAIpwq-38" value="12" style="text;html=1;align=center;verticalAlign=middle;resizable=0;points=[];autosize=1;strokeColor=none;fillColor=none;" vertex="1" parent="1">
          <mxGeometry x="240" y="808" width="40" height="30" as="geometry" />
        </mxCell>
        <mxCell id="rTlrXJe3bDcf8CnAIpwq-39" value="24" style="text;html=1;align=center;verticalAlign=middle;resizable=0;points=[];autosize=1;strokeColor=none;fillColor=none;" vertex="1" parent="1">
          <mxGeometry x="300" y="798" width="40" height="30" as="geometry" />
        </mxCell>
        <mxCell id="rTlrXJe3bDcf8CnAIpwq-40" value="28" style="text;html=1;align=center;verticalAlign=middle;resizable=0;points=[];autosize=1;strokeColor=none;fillColor=none;" vertex="1" parent="1">
          <mxGeometry x="410" y="788" width="40" height="30" as="geometry" />
        </mxCell>
        <mxCell id="rTlrXJe3bDcf8CnAIpwq-41" value="22" style="text;html=1;align=center;verticalAlign=middle;resizable=0;points=[];autosize=1;strokeColor=none;fillColor=none;" vertex="1" parent="1">
          <mxGeometry x="480" y="788" width="40" height="30" as="geometry" />
        </mxCell>
        <mxCell id="rTlrXJe3bDcf8CnAIpwq-42" value="5" style="text;html=1;align=center;verticalAlign=middle;resizable=0;points=[];autosize=1;strokeColor=none;fillColor=none;rotation=0;" vertex="1" parent="1">
          <mxGeometry x="105" y="738" width="30" height="30" as="geometry" />
        </mxCell>
        <mxCell id="rTlrXJe3bDcf8CnAIpwq-43" value="5" style="text;html=1;align=center;verticalAlign=middle;resizable=0;points=[];autosize=1;strokeColor=none;fillColor=none;" vertex="1" parent="1">
          <mxGeometry x="135" y="718" width="30" height="30" as="geometry" />
        </mxCell>
        <mxCell id="rTlrXJe3bDcf8CnAIpwq-44" value="10" style="text;html=1;align=center;verticalAlign=middle;resizable=0;points=[];autosize=1;strokeColor=none;fillColor=none;" vertex="1" parent="1">
          <mxGeometry x="160" y="738" width="40" height="30" as="geometry" />
        </mxCell>
        <mxCell id="rTlrXJe3bDcf8CnAIpwq-45" value="12" style="text;html=1;align=center;verticalAlign=middle;resizable=0;points=[];autosize=1;strokeColor=none;fillColor=none;" vertex="1" parent="1">
          <mxGeometry x="630" y="828" width="40" height="30" as="geometry" />
        </mxCell>
        <mxCell id="rTlrXJe3bDcf8CnAIpwq-46" value="5" style="text;html=1;align=center;verticalAlign=middle;resizable=0;points=[];autosize=1;strokeColor=none;fillColor=none;" vertex="1" parent="1">
          <mxGeometry x="685" y="818" width="30" height="30" as="geometry" />
        </mxCell>
        <mxCell id="rTlrXJe3bDcf8CnAIpwq-47" value="5" style="text;html=1;align=center;verticalAlign=middle;resizable=0;points=[];autosize=1;strokeColor=none;fillColor=none;" vertex="1" parent="1">
          <mxGeometry x="705" y="758" width="30" height="30" as="geometry" />
        </mxCell>
        <mxCell id="rTlrXJe3bDcf8CnAIpwq-48" value="14" style="text;html=1;align=center;verticalAlign=middle;resizable=0;points=[];autosize=1;strokeColor=none;fillColor=none;" vertex="1" parent="1">
          <mxGeometry x="600" y="758" width="40" height="30" as="geometry" />
        </mxCell>
        <mxCell id="rTlrXJe3bDcf8CnAIpwq-49" value="5" style="text;html=1;align=center;verticalAlign=middle;resizable=0;points=[];autosize=1;strokeColor=none;fillColor=none;" vertex="1" parent="1">
          <mxGeometry x="635" y="718" width="30" height="30" as="geometry" />
        </mxCell>
        <mxCell id="rTlrXJe3bDcf8CnAIpwq-50" value="12" style="text;html=1;align=center;verticalAlign=middle;resizable=0;points=[];autosize=1;strokeColor=none;fillColor=none;" vertex="1" parent="1">
          <mxGeometry x="534" y="718" width="40" height="30" as="geometry" />
        </mxCell>
        <mxCell id="rTlrXJe3bDcf8CnAIpwq-51" value="20" style="text;html=1;align=center;verticalAlign=middle;resizable=0;points=[];autosize=1;strokeColor=none;fillColor=none;" vertex="1" parent="1">
          <mxGeometry x="430" y="718" width="40" height="30" as="geometry" />
        </mxCell>
        <mxCell id="rTlrXJe3bDcf8CnAIpwq-52" value="24" style="text;html=1;align=center;verticalAlign=middle;resizable=0;points=[];autosize=1;strokeColor=none;fillColor=none;" vertex="1" parent="1">
          <mxGeometry x="320" y="718" width="40" height="30" as="geometry" />
        </mxCell>
        <mxCell id="rTlrXJe3bDcf8CnAIpwq-53" value="12" style="text;html=1;align=center;verticalAlign=middle;resizable=0;points=[];autosize=1;strokeColor=none;fillColor=none;" vertex="1" parent="1">
          <mxGeometry x="210" y="718" width="40" height="30" as="geometry" />
        </mxCell>
        <mxCell id="rTlrXJe3bDcf8CnAIpwq-54" value="10" style="text;html=1;align=center;verticalAlign=middle;resizable=0;points=[];autosize=1;strokeColor=none;fillColor=none;" vertex="1" parent="1">
          <mxGeometry x="190" y="648" width="40" height="30" as="geometry" />
        </mxCell>
        <mxCell id="rTlrXJe3bDcf8CnAIpwq-55" value="22" style="text;html=1;align=center;verticalAlign=middle;resizable=0;points=[];autosize=1;strokeColor=none;fillColor=none;" vertex="1" parent="1">
          <mxGeometry x="260" y="638" width="40" height="30" as="geometry" />
        </mxCell>
        <mxCell id="rTlrXJe3bDcf8CnAIpwq-56" value="22" style="text;html=1;align=center;verticalAlign=middle;resizable=0;points=[];autosize=1;strokeColor=none;fillColor=none;" vertex="1" parent="1">
          <mxGeometry x="280" y="578" width="40" height="30" as="geometry" />
        </mxCell>
        <mxCell id="rTlrXJe3bDcf8CnAIpwq-57" value="26" style="text;html=1;align=center;verticalAlign=middle;resizable=0;points=[];autosize=1;strokeColor=none;fillColor=none;" vertex="1" parent="1">
          <mxGeometry x="400" y="648" width="40" height="30" as="geometry" />
        </mxCell>
        <mxCell id="rTlrXJe3bDcf8CnAIpwq-58" value="22" style="text;html=1;align=center;verticalAlign=middle;resizable=0;points=[];autosize=1;strokeColor=none;fillColor=none;" vertex="1" parent="1">
          <mxGeometry x="440" y="658" width="40" height="30" as="geometry" />
        </mxCell>
        <mxCell id="rTlrXJe3bDcf8CnAIpwq-59" value="12" style="text;html=1;align=center;verticalAlign=middle;resizable=0;points=[];autosize=1;strokeColor=none;fillColor=none;" vertex="1" parent="1">
          <mxGeometry x="560" y="658" width="40" height="30" as="geometry" />
        </mxCell>
        <mxCell id="rTlrXJe3bDcf8CnAIpwq-60" value="5" style="text;html=1;align=center;verticalAlign=middle;resizable=0;points=[];autosize=1;strokeColor=none;fillColor=none;" vertex="1" parent="1">
          <mxGeometry x="645" y="658" width="30" height="30" as="geometry" />
        </mxCell>
        <mxCell id="rTlrXJe3bDcf8CnAIpwq-61" value="10" style="text;html=1;align=center;verticalAlign=middle;resizable=0;points=[];autosize=1;strokeColor=none;fillColor=none;" vertex="1" parent="1">
          <mxGeometry x="476" y="608" width="40" height="30" as="geometry" />
        </mxCell>
      </root>
    </mxGraphModel>
  </diagram>
</mxfile>
